<?xml version="1.0" standalone="no"?>
<!DOCTYPE svg PUBLIC "-//W3C//DTD SVG 20010904//EN"
 "http://www.w3.org/TR/2001/REC-SVG-20010904/DTD/svg10.dtd">
<svg version="1.0" xmlns="http://www.w3.org/2000/svg"
 width="16.000000pt" height="16.000000pt" viewBox="0 0 16.000000 16.000000"
 preserveAspectRatio="xMidYMid meet">
<metadata>
Created by potrace 1.11, written by Peter Selinger 2001-2013
</metadata>
<g transform="translate(0.000000,16.000000) scale(0.001939,-0.001939)"
fill="#000000" stroke="none">
<path d="M3810 6396 l0 -436 90 0 90 0 0 181 0 182 61 -7 c36 -3 72 -14 89
-26 15 -11 74 -89 131 -174 l104 -155 108 -1 c59 0 107 2 107 5 0 10 -147 238
-179 278 -16 21 -46 51 -66 67 l-36 28 52 17 c64 22 133 87 148 141 39 138
-20 270 -139 314 -24 9 -116 15 -297 18 l-263 4 0 -436z m479 259 c33 -17 41
-33 41 -85 0 -86 -26 -100 -206 -107 l-134 -6 0 107 0 106 135 0 c100 0 144
-4 164 -15z"/>
<path d="M2945 6663 c-49 -19 -95 -40 -102 -46 -6 -7 -53 -113 -103 -237 -51
-124 -93 -226 -95 -228 -1 -1 -30 75 -65 170 -35 95 -64 175 -66 177 -1 1 -41
-11 -88 -29 l-85 -32 18 -47 c10 -25 78 -208 151 -406 73 -198 134 -361 134
-362 5 -6 166 61 166 68 0 4 -18 56 -40 116 -22 59 -40 115 -40 124 0 9 17 53
38 97 l37 81 177 -144 c97 -80 182 -145 190 -145 12 0 199 68 207 75 1 2 -110
88 -249 191 -138 102 -249 192 -247 198 3 6 43 100 91 208 47 108 86 199 86
202 0 11 -24 4 -115 -31z"/>
<path d="M4921 6329 c-150 -203 -271 -372 -268 -375 2 -2 43 -15 91 -28 l86
-24 58 83 c31 47 64 84 72 84 8 0 82 -19 165 -42 l150 -42 7 -50 c4 -27 10
-75 13 -106 l6 -56 90 -23 c49 -12 92 -21 94 -18 4 4 -86 807 -100 894 -5 29
-10 32 -84 52 -43 12 -85 22 -93 22 -7 0 -137 -167 -287 -371z m329 -43 c6
-70 9 -130 7 -132 -9 -9 -207 51 -203 61 2 6 41 64 87 128 97 138 91 141 109
-57z"/>
<path d="M5969 6331 c-131 -42 -241 -160 -306 -329 -35 -91 -37 -211 -4 -294
33 -84 106 -159 199 -205 140 -69 284 -54 387 40 l46 42 -60 65 c-64 71 -57
70 -126 15 -30 -24 -49 -30 -99 -33 -54 -3 -66 0 -109 27 -86 56 -108 146 -63
265 85 225 237 318 374 229 55 -36 82 -87 82 -154 l0 -54 83 -22 c46 -12 86
-18 91 -13 4 4 8 41 9 82 0 119 -48 207 -155 278 -113 75 -237 97 -349 61z"/>
<path d="M3467 6296 c-87 -17 -158 -35 -159 -41 0 -5 6 -43 12 -82 10 -55 17
-73 29 -73 30 0 296 53 304 60 7 6 -17 158 -26 166 -1 1 -73 -13 -160 -30z"/>
<path d="M1808 6121 c-75 -24 -140 -67 -205 -133 -169 -172 -143 -419 66 -629
83 -83 142 -113 245 -125 152 -18 355 101 432 254 27 52 29 66 29 163 0 104 0
106 -44 194 -55 111 -156 217 -246 260 -79 38 -193 44 -277 16z m199 -181 c61
-35 124 -109 164 -195 80 -168 -19 -336 -197 -336 -101 0 -193 70 -262 200
-76 141 -41 270 90 335 73 37 137 35 205 -4z"/>
<path d="M6505 5618 c-143 -183 -261 -337 -262 -342 -1 -6 28 -34 65 -63 52
-41 69 -50 79 -40 25 27 523 662 523 669 0 9 -126 108 -136 107 -5 0 -126
-149 -269 -331z"/>
<path d="M6795 5395 c-170 -157 -311 -291 -313 -298 -1 -7 22 -36 52 -66 l55
-54 63 56 c35 31 124 112 198 181 74 68 136 123 138 121 2 -2 -36 -141 -83
-310 l-87 -307 59 -63 c32 -34 61 -62 65 -61 14 2 639 579 636 587 -2 4 -27
33 -57 64 l-54 57 -36 -34 c-20 -19 -94 -88 -166 -153 -71 -66 -149 -137 -172
-159 l-43 -40 20 70 c11 38 52 182 92 320 l71 252 -54 61 c-30 33 -58 61 -64
61 -5 0 -149 -129 -320 -285z"/>
<path d="M821 5233 c-47 -52 -58 -70 -48 -79 6 -6 136 -120 287 -254 151 -134
291 -258 311 -277 l35 -34 185 208 c101 114 193 218 204 232 l19 24 -54 49
c-30 26 -56 48 -59 47 -3 0 -69 -72 -146 -159 -117 -134 -142 -157 -155 -147
-15 12 -442 389 -491 434 l-26 24 -62 -68z"/>
<path d="M5308 5014 c-86 -20 -189 -76 -257 -140 -57 -52 -64 -56 -87 -45 -35
16 -51 14 -72 -10 -16 -16 -27 -19 -53 -14 -21 4 -51 0 -78 -9 -81 -29 -262
-11 -305 31 -21 20 -25 21 -45 7 -19 -14 -24 -13 -47 5 -19 15 -41 21 -79 21
-39 0 -68 8 -110 30 -31 17 -68 30 -81 30 -40 0 -90 -26 -114 -58 l-22 -30
-35 39 c-43 48 -108 74 -166 66 -137 -20 -227 -78 -276 -179 -41 -84 -64 -179
-56 -228 13 -76 77 -126 150 -118 41 5 41 5 41 -28 0 -19 -5 -34 -10 -34 -6 0
-100 16 -209 35 -115 20 -211 32 -229 28 -65 -13 -117 -97 -101 -161 16 -69
89 -122 165 -122 40 0 50 5 73 32 25 30 27 39 14 88 -5 21 64 16 156 -11 107
-32 125 -44 125 -82 0 -49 33 -94 78 -108 26 -7 44 -20 51 -36 16 -35 89 -65
130 -53 18 5 39 15 47 21 11 9 21 9 40 1 21 -10 32 -8 73 16 l49 27 44 -31
c75 -52 130 -68 155 -43 15 15 26 -26 27 -101 0 -99 -20 -134 -56 -92 -8 9
-41 61 -73 114 -70 119 -77 126 -110 104 -34 -22 -32 -50 10 -118 19 -32 32
-58 29 -58 -4 0 -28 16 -54 35 -128 94 -199 89 -769 -55 -415 -105 -532 -143
-718 -235 -125 -61 -169 -89 -250 -158 -118 -101 -217 -202 -392 -402 -105
-119 -143 -156 -185 -177 -53 -27 -75 -48 -119 -117 -39 -61 -51 -62 -104 -9
l-48 48 -32 -20 c-55 -33 -70 -91 -33 -125 11 -10 20 -24 20 -31 0 -8 -42 -44
-92 -81 -146 -107 -260 -217 -353 -343 -94 -127 -119 -185 -119 -275 0 -117
63 -228 155 -276 55 -28 352 -78 524 -89 183 -11 2624 -26 2651 -16 16 6 16 9
4 16 -17 11 561 15 2147 15 702 0 1063 3 1063 10 0 6 -115 12 -312 16 -309 7
-418 15 -593 45 -152 26 -356 80 -366 96 -14 23 8 53 77 105 41 30 74 62 74
70 0 7 -9 26 -19 41 -12 16 -24 59 -31 107 -6 44 -20 109 -32 144 -20 62 -20
65 -3 77 17 13 15 20 -29 121 -26 60 -74 149 -106 200 l-59 92 25 57 c40 91
57 179 51 264 -4 42 -9 83 -12 91 -7 20 112 143 190 196 33 22 96 58 140 81
44 22 92 53 106 69 57 61 129 186 129 222 0 25 -79 93 -155 132 -57 30 -62 36
-88 99 -18 44 -45 86 -78 120 -28 29 -54 62 -58 73 -5 12 -2 53 6 91 15 75 34
333 26 353 -3 7 -19 21 -37 31 -18 11 -53 50 -79 88 -131 198 -358 367 -562
419 -72 18 -210 18 -287 -1z m256 -39 c71 -19 136 -72 243 -200 71 -84 82
-111 33 -85 -12 6 -24 9 -28 6 -3 -4 18 -55 46 -114 56 -115 85 -213 80 -264
l-3 -32 -149 -18 c-82 -10 -150 -17 -150 -16 -1 2 -12 35 -24 73 -45 135 -156
345 -182 345 -5 0 -10 -9 -10 -21 0 -30 -17 -14 -47 44 -14 29 -64 91 -111
139 -47 49 -84 89 -81 91 2 2 33 14 69 27 111 41 220 49 314 25z m329 -165
c80 -64 185 -179 221 -243 l19 -32 -27 25 c-23 21 -29 22 -37 10 -5 -8 -7 -37
-3 -64 7 -52 9 -50 -41 -30 -21 8 -19 -15 5 -76 24 -62 24 -66 3 -74 -27 -11
-42 15 -63 102 -11 45 -29 100 -40 122 -25 50 -25 52 5 44 36 -9 33 14 -11 89
-42 72 -81 125 -138 186 l-41 44 33 -19 c19 -10 71 -48 115 -84z m-718 30 c16
-16 27 -32 24 -34 -2 -3 -23 0 -45 6 -60 17 -78 6 -70 -40 4 -20 9 -87 13
-149 l6 -112 -25 -6 c-43 -11 -81 -59 -80 -100 6 -157 134 -391 320 -587 87
-91 117 -141 99 -169 -9 -15 -7 -22 9 -41 11 -13 26 -32 34 -42 15 -18 14 -19
-15 -3 -60 31 -171 134 -218 202 -103 152 -211 404 -241 565 -29 153 -12 349
38 434 27 47 89 106 109 106 8 0 26 -13 42 -30z m-1003 -10 c53 -33 99 -38
118 -15 12 14 17 12 47 -17 19 -18 46 -52 60 -76 29 -50 43 -46 43 11 0 40 1
41 13 17 l13 -25 159 1 c189 1 224 6 265 41 l31 26 22 -21 21 -21 -18 -128
c-15 -108 -16 -144 -7 -235 21 -214 64 -358 152 -511 41 -71 49 -93 44 -117
-10 -46 -26 -47 -59 -5 -17 21 -68 79 -113 129 -73 80 -86 100 -104 161 -12
38 -27 108 -35 154 -12 77 -12 93 6 178 11 52 26 116 34 144 8 27 11 49 6 49
-4 0 -28 -28 -53 -63 -65 -91 -65 -91 -122 -62 -27 14 -62 25 -79 25 -48 0
-97 17 -125 44 -22 19 -40 24 -108 29 -107 8 -139 23 -198 91 -37 41 -63 61
-100 74 -60 21 -81 54 -65 98 24 61 77 70 152 24z m-331 -20 c87 -28 98 -34
144 -86 45 -51 55 -57 92 -58 38 -1 44 -4 59 -38 19 -42 51 -75 111 -112 31
-19 45 -36 54 -65 14 -47 7 -71 -20 -71 -10 0 -59 -20 -108 -44 -103 -52 -190
-127 -263 -226 -35 -49 -57 -70 -72 -70 -24 0 -58 27 -58 46 0 38 172 232 287
323 47 38 57 61 36 90 -41 60 -111 -8 -351 -337 -26 -36 -57 -40 -76 -10 -22
35 93 226 210 349 41 43 74 84 74 93 0 22 -28 46 -55 46 -27 0 -68 -47 -118
-136 -23 -41 -40 -60 -55 -62 -69 -10 -69 73 1 192 35 60 44 83 35 93 -17 21
-52 15 -80 -14 -35 -38 -98 -147 -98 -171 0 -44 -71 -55 -85 -14 -9 29 31 143
71 204 36 55 71 83 122 98 41 12 42 12 143 -20z m1384 -81 c29 -26 36 -28 41
-15 3 9 4 23 0 31 -13 34 7 9 75 -92 40 -60 74 -110 76 -113 2 -2 12 1 23 7
17 11 22 6 50 -55 44 -91 80 -188 80 -212 0 -17 -7 -20 -37 -19 -21 0 -58 4
-82 7 -42 7 -45 9 -61 57 -32 95 -98 205 -122 205 -7 0 -8 -20 -4 -61 7 -58 6
-60 -13 -50 -11 6 -23 16 -26 21 -14 23 -35 9 -35 -22 l0 -33 -31 49 c-26 40
-30 55 -24 85 10 49 7 169 -4 209 -9 32 -9 32 24 32 24 0 45 -9 70 -31z m920
-263 c27 -25 27 -25 8 -56 -18 -31 -52 -48 -72 -35 -18 10 -13 33 7 31 13 -1
18 8 20 42 2 23 5 42 7 42 2 0 16 -11 30 -24z m-1011 -70 l46 -53 -1 -144 0
-144 -50 99 c-60 116 -96 244 -79 276 17 31 35 24 84 -34z m1071 -191 c-18
-107 -71 -279 -111 -360 -13 -27 -21 -41 -18 -30 23 70 75 301 84 369 16 127
23 119 -77 85 -128 -43 -188 -56 -283 -63 -85 -5 -84 -5 74 29 190 41 273 76
313 133 l28 39 3 -51 c2 -28 -4 -96 -13 -151z m-1719 135 c29 -16 80 -61 114
-100 56 -62 100 -89 100 -60 0 21 16 9 43 -32 24 -37 36 -78 22 -78 -2 0 -24
13 -49 28 -25 16 -78 43 -118 61 -64 29 -80 41 -130 105 -32 41 -60 81 -64 90
-10 25 24 20 82 -14z m809 -10 c8 0 15 6 15 13 0 17 20 -14 20 -32 0 -9 -8
-11 -27 -6 -36 8 -73 32 -73 46 0 7 10 5 25 -5 13 -9 31 -16 40 -16z m-1946 2
c63 -9 116 -21 118 -27 2 -6 -42 -10 -119 -10 l-123 0 3 -37 c1 -20 -2 -39 -8
-43 -21 -13 -60 5 -75 35 -20 39 -19 56 5 80 24 24 46 24 199 2z m1017 -45
c22 -24 56 -68 77 -97 l38 -53 -52 -118 c-29 -65 -54 -117 -56 -115 -2 1 4 42
13 90 9 48 14 90 11 93 -3 3 -34 -13 -68 -36 -34 -22 -65 -41 -69 -41 -4 0
-12 11 -18 24 -17 39 -80 103 -134 138 l-49 32 23 18 c39 31 199 108 223 108
14 0 37 -16 61 -43z m1234 -77 l75 -7 -75 -1 c-41 -1 -104 5 -140 13 l-65 13
65 -5 c36 -3 99 -8 140 -13z m-271 -17 c0 -5 -4 -17 -9 -28 -8 -18 -9 -17 -9
8 -1 15 4 27 9 27 6 0 10 -3 9 -7z m59 -34 c-5 -35 -28 -36 -28 -1 0 16 3 32
7 36 11 11 25 -10 21 -35z m53 -32 c-8 -8 -11 -4 -11 14 0 33 14 47 18 19 2
-12 -1 -27 -7 -33z m87 16 c-4 -39 -28 -42 -28 -4 0 21 5 31 16 31 11 0 14 -8
12 -27z m72 3 c0 -13 -7 -29 -15 -36 -12 -10 -15 -9 -15 8 0 27 10 52 21 52 5
0 9 -11 9 -24z m60 -11 c0 -23 -16 -42 -27 -32 -3 3 -2 19 2 36 8 35 25 32 25
-4z m50 6 c0 -17 -4 -33 -10 -36 -6 -4 -10 8 -10 29 0 20 5 36 10 36 6 0 10
-13 10 -29z m-1580 -41 c19 -16 43 -42 53 -59 18 -31 18 -31 -4 -31 -15 0 -43
20 -76 55 -84 86 -67 108 27 35z m514 -40 c200 -102 376 -281 473 -481 54
-109 61 -138 36 -138 -10 -1 -83 -4 -163 -7 -139 -6 -150 -5 -270 25 -153 39
-306 96 -337 127 -48 48 -21 172 81 382 48 97 70 132 83 132 10 0 54 -18 97
-40z m775 6 c54 -45 121 -70 167 -63 19 3 56 20 81 36 37 25 57 31 97 31 28
-1 62 -7 76 -15 37 -21 97 -18 136 6 37 22 42 14 20 -29 -27 -52 -46 -62 -93
-49 -39 10 -45 9 -67 -12 -22 -21 -32 -23 -85 -18 -50 4 -62 2 -77 -14 -23
-26 -79 -35 -123 -19 -67 23 -231 145 -231 171 0 22 61 7 99 -25z m551 24 c0
-5 -11 -10 -25 -10 -14 0 -25 5 -25 10 0 6 11 10 25 10 14 0 25 -4 25 -10z
m-335 -35 c0 -17 -41 -17 -55 0 -12 15 -10 16 21 13 19 -2 34 -7 34 -13z
m-338 -72 c-2 -16 -4 -3 -4 27 0 30 2 43 4 28 2 -16 2 -40 0 -55z m60 -28 c-3
-29 -11 -62 -17 -72 -9 -14 -10 -6 -6 39 3 31 9 63 12 72 12 31 17 15 11 -39z
m68 -5 c8 -13 -15 -130 -26 -130 -11 0 -11 30 -3 94 7 44 16 57 29 36z m849
-72 c20 -23 45 -61 57 -84 13 -29 36 -53 70 -75 35 -22 47 -34 37 -39 -7 -4
-72 -28 -144 -53 -225 -78 -372 -161 -555 -314 l-94 -79 -35 24 c-36 25 -55
25 -180 6 -34 -5 -36 -4 -63 49 -16 31 -50 73 -82 100 -63 55 -79 94 -73 178
7 91 17 93 90 17 104 -108 247 -163 401 -155 101 5 178 32 261 91 121 86 216
253 216 378 l0 39 29 -21 c17 -11 46 -39 65 -62z m-794 -37 c-17 -81 -35 -80
-26 0 7 70 13 86 29 70 7 -7 6 -29 -3 -70z m-1373 52 c3 -10 28 -55 56 -101
27 -46 47 -85 44 -88 -2 -3 -24 28 -47 68 -23 40 -51 88 -62 106 -11 18 -15
32 -9 32 7 0 14 -8 18 -17z m1569 -25 c-3 -13 -14 -56 -23 -95 -9 -40 -21 -73
-28 -73 -13 0 7 136 25 170 15 28 34 26 26 -2z m-126 -11 c0 -40 -31 -130 -41
-120 -6 6 -6 20 0 39 5 16 12 46 16 67 6 41 25 51 25 14z m-1543 -53 c211
-176 381 -383 508 -618 59 -108 62 -145 18 -237 -24 -52 -48 -81 -119 -146
-129 -118 -340 -270 -564 -406 -234 -142 -375 -240 -516 -358 -133 -111 -244
-214 -244 -228 0 -27 38 -4 118 72 48 45 134 117 192 158 l105 77 185 -12
c161 -10 181 -13 157 -23 -16 -7 -47 -13 -71 -13 -24 0 -86 -11 -138 -24 -188
-48 -310 -133 -483 -337 -26 -31 -40 -38 -99 -49 -92 -17 -280 -8 -337 17
l-41 18 78 60 c85 65 242 235 305 329 68 102 54 145 -84 260 -263 216 -411
428 -518 745 -68 201 -90 205 -244 53 -74 -72 -131 -118 -173 -141 -35 -18
-66 -31 -68 -28 -10 10 179 219 269 297 202 177 345 257 624 351 182 61 602
174 718 193 l40 6 -40 -21 c-58 -31 -141 -98 -209 -167 -55 -56 -166 -206
-166 -224 0 -18 20 -6 39 25 21 34 145 160 196 199 16 13 -13 -20 -66 -72
-113 -113 -165 -203 -200 -350 -8 -37 2 -60 29 -60 8 0 89 48 180 107 l164
108 -4 90 c-4 88 -32 179 -60 196 -19 12 123 87 242 128 63 22 116 36 118 33
1 -4 51 -96 110 -205 l109 -197 172 -180 172 -179 -58 -46 c-80 -62 -205 -122
-321 -151 -80 -21 -115 -25 -202 -22 -88 2 -105 1 -105 -12 0 -21 96 -33 220
-26 180 9 371 73 533 178 34 22 62 43 62 47 0 11 -51 83 -89 127 -20 23 -51
60 -69 83 -18 23 -45 44 -60 47 -51 11 -53 13 -43 32 7 13 2 28 -25 65 -35 49
-57 57 -95 36 -16 -8 -25 -7 -40 7 -24 22 -24 35 1 67 28 35 25 57 -11 96 -23
25 -33 31 -42 22 -18 -18 -29 -13 -17 10 14 25 -14 79 -48 94 -13 6 -22 19
-22 32 0 12 -16 42 -35 67 -19 26 -35 48 -35 51 0 18 39 -3 97 -51z m1591 4
c-5 -29 -14 -57 -20 -63 -8 -7 -9 -4 -4 10 4 10 10 38 13 62 3 24 9 43 13 43
4 0 3 -24 -2 -52z m-428 -147 c-9 -38 -15 -50 -20 -40 -8 14 2 84 17 119 13
31 15 -24 3 -79z m339 25 c77 -53 154 -70 308 -71 137 0 141 -1 125 -19 -31
-33 -103 -69 -170 -83 -61 -13 -70 -12 -131 8 -97 33 -181 89 -132 89 12 0 21
7 21 15 0 8 -4 15 -9 15 -5 0 -21 16 -35 35 -32 41 -25 44 23 11z m1001 -126
c23 -15 -26 -96 -91 -149 -66 -54 -79 -37 -19 24 30 31 41 49 36 61 -6 15 -17
16 -87 11 -94 -6 -111 -17 -134 -87 l-16 -48 -37 9 c-60 14 -110 10 -150 -10
-47 -25 -119 -98 -107 -109 24 -21 134 -44 178 -38 59 9 66 -4 24 -51 -66 -75
-167 -240 -167 -274 0 -10 7 -19 15 -19 18 0 20 -56 4 -113 -23 -83 -121 -152
-205 -145 l-39 4 30 12 c74 30 78 41 37 131 -20 43 -33 91 -38 139 -7 78 1 90
29 42 17 -29 37 -40 37 -21 0 5 -9 31 -20 57 -11 26 -19 49 -16 51 2 2 27 -7
55 -21 90 -46 124 -25 54 33 l-38 30 38 1 c60 0 41 22 -45 50 -42 14 -80 28
-84 32 -17 18 142 191 236 255 92 62 254 128 360 146 49 8 145 7 160 -3z
m-3040 -105 c0 -6 -97 -55 -107 -55 -4 1 17 14 47 30 61 32 60 32 60 25z
m2881 -14 c-10 -19 -71 -75 -76 -69 -1 2 0 22 3 46 4 42 5 42 43 42 36 0 39
-2 30 -19z m-2901 -46 c0 -5 -68 -41 -108 -56 -42 -16 -19 0 45 31 68 33 63
31 63 25z m1796 -32 c44 -48 60 -95 44 -132 -13 -33 -88 -92 -150 -120 l-44
-20 -24 46 c-12 25 -48 74 -78 109 -32 36 -54 70 -51 78 7 17 181 75 231 75
32 1 44 -5 72 -36z m-506 -9 c47 -30 60 -46 88 -105 21 -44 57 -95 97 -138
l65 -68 -23 -22 -23 -21 -70 60 c-83 72 -173 134 -277 190 l-76 41 72 49 c40
27 77 49 82 50 6 0 35 -16 65 -36z m-1310 -19 c0 -6 -137 -75 -147 -75 -6 1
134 77 145 80 1 0 2 -2 2 -5z m2672 -11 c22 -11 33 -13 41 -5 6 6 25 11 41 11
68 0 -35 -33 -145 -47 -51 -7 -57 12 -12 36 46 25 38 24 75 5z m-1156 -107
c22 -25 50 -63 63 -87 l23 -42 -22 12 c-49 26 -140 140 -140 175 0 13 41 -18
76 -58z m598 -18 c14 -11 33 -35 42 -52 9 -18 33 -48 55 -67 38 -35 39 -36 52
-150 10 -79 23 -134 41 -174 14 -32 26 -60 26 -63 0 -11 -135 -65 -196 -78
-87 -19 -184 -19 -209 -2 -26 20 -10 37 35 37 95 0 254 79 222 111 -10 11 -17
10 -40 -4 -60 -39 -120 -60 -188 -64 -74 -6 -97 4 -75 31 6 7 62 33 123 56 62
24 123 54 135 66 31 31 31 72 -1 80 -19 4 -38 -4 -81 -38 -96 -73 -126 -88
-178 -88 l-48 0 28 51 c35 65 104 127 182 164 53 25 61 33 61 57 0 35 -31 54
-61 37 -90 -48 -164 -107 -223 -178 -36 -44 -76 -85 -87 -92 -30 -15 -67 3
-75 37 -19 76 150 245 314 315 80 34 111 36 146 8z m-3166 -51 c12 -33 21 -62
20 -63 -2 -1 -39 -7 -83 -14 -44 -6 -91 -14 -105 -17 -19 -5 -7 12 55 75 44
44 82 81 85 81 3 0 16 -28 28 -62z m-14 -217 c172 -148 334 -389 389 -578 l16
-52 -50 -10 c-87 -19 -104 -12 -22 9 l42 10 -32 88 c-39 107 -113 243 -183
338 -81 111 -101 114 -54 10 34 -76 60 -169 60 -213 0 -16 -7 -54 -16 -84 -12
-42 -28 -65 -71 -106 -30 -29 -63 -53 -73 -53 -17 0 -50 -34 -50 -52 0 -15
134 -8 154 7 11 8 29 15 40 14 21 0 21 -1 1 -9 -13 -5 32 -9 120 -9 77 -1 156
-6 177 -11 39 -11 55 -35 37 -57 -28 -33 -249 -158 -387 -218 l-57 -25 52 47
c53 49 113 135 113 162 0 13 -15 16 -89 16 -79 1 -95 4 -157 35 -122 59 -264
228 -335 398 -46 112 -47 127 -5 211 35 69 38 91 13 91 -7 0 -84 -41 -171 -90
-87 -50 -161 -90 -164 -90 -2 0 1 7 8 15 25 30 240 150 369 206 115 49 145 58
197 59 60 0 61 -1 128 -59z m2173 -171 c88 -56 138 -61 319 -30 64 11 119 18
122 16 6 -6 -72 -45 -138 -68 -30 -11 -113 -32 -184 -46 -71 -15 -131 -32
-133 -38 -14 -43 283 1 504 73 94 31 114 35 127 24 9 -8 16 -20 16 -27 0 -20
-179 -135 -292 -189 -185 -87 -322 -122 -590 -148 -129 -13 -195 -11 -392 15
-13 2 35 41 145 115 90 62 227 162 304 222 77 60 141 110 142 110 1 1 24 -13
50 -29z m686 -18 c32 -35 69 -134 74 -196 5 -53 2 -64 -16 -80 -19 -17 -22
-18 -46 -2 -13 9 -28 28 -31 42 -5 21 -1 31 21 48 25 20 27 27 22 60 -3 21
-18 60 -32 87 -14 27 -25 51 -25 54 0 11 18 4 33 -13z m-3417 -98 l44 -26 -67
-40 c-96 -57 -233 -161 -233 -176 0 -21 27 -8 178 83 135 82 165 95 177 76 8
-14 -13 -30 -135 -101 -221 -128 -578 -421 -512 -420 4 0 46 31 93 68 137 108
367 252 532 334 l89 43 29 -34 c62 -74 130 -251 128 -332 0 -32 -5 -36 -79
-72 -150 -74 -315 -229 -382 -361 -28 -56 -31 -77 -13 -118 7 -17 -3 -18 -131
-18 -151 0 -260 15 -389 55 -99 30 -157 71 -200 140 -25 41 -30 58 -30 114 0
58 6 76 43 147 94 179 318 376 675 594 62 38 118 69 125 69 7 1 33 -11 58 -25z
m3888 -73 c5 -8 -175 -82 -183 -75 -7 6 22 35 52 50 23 12 69 25 119 33 4 1 9
-3 12 -8z m251 -38 c-113 -13 -221 -40 -298 -74 -95 -43 -107 -45 -107 -26 0
15 81 51 190 83 54 16 99 22 160 22 47 -1 72 -3 55 -5z m-780 -52 c8 -26 26
-58 38 -69 28 -27 78 -38 104 -23 17 8 25 5 50 -22 32 -33 68 -95 60 -103 -2
-3 -58 -7 -123 -10 -66 -4 -162 -16 -216 -29 l-98 -22 -106 25 c-105 24 -106
24 -98 51 4 14 8 43 8 65 l1 38 75 28 c41 15 117 48 169 74 52 25 100 46 107
46 7 0 20 -22 29 -49z m865 -10 c0 -4 -30 -11 -67 -14 -87 -7 -213 -42 -285
-78 -64 -32 -78 -35 -78 -16 0 13 15 20 129 63 101 39 301 69 301 45z m45 -71
c3 -5 2 -10 -2 -10 -5 0 -47 -5 -93 -10 -100 -12 -171 -31 -258 -67 -34 -14
-65 -23 -69 -20 -14 14 114 73 222 102 59 16 191 19 200 5z m-1335 -56 c0 -27
-38 -91 -65 -108 -14 -10 -36 -16 -48 -14 -19 3 -18 6 16 25 33 20 54 51 71
106 7 21 26 14 26 -9z m-90 -17 c0 -25 -17 -47 -37 -47 -18 0 -16 35 3 54 22
22 34 20 34 -7z m1460 -3 c0 -4 -7 -12 -17 -19 -15 -11 -13 -19 20 -96 38 -90
57 -173 57 -252 0 -46 -1 -49 -22 -43 -58 18 -197 18 -273 1 -92 -20 -120 -42
-112 -89 9 -58 2 -61 -160 -66 -147 -5 -147 -5 -153 -30 -11 -45 -59 -60 -195
-58 -77 1 -128 -2 -142 -10 -34 -19 -40 -15 -69 34 -47 80 -75 173 -81 266
l-6 88 56 25 c117 54 248 55 372 4 84 -35 105 -37 105 -8 0 52 72 -21 152
-156 45 -75 65 -49 41 55 -8 35 -13 86 -11 114 3 50 4 51 36 54 37 4 40 19 12
55 -31 40 -25 54 33 76 67 24 153 49 192 54 52 7 165 7 165 1z m-3483 -50 c-3
-3 -12 -4 -19 -1 -8 3 -5 6 6 6 11 1 17 -2 13 -5z m1357 -7 c100 -11 107 -13
90 -28 -58 -48 -181 -89 -269 -89 -44 0 -143 22 -168 37 -15 9 26 45 78 69 57
27 102 29 269 11z m556 -16 c0 -41 -38 -82 -75 -84 -17 0 -87 0 -156 1 l-126
2 15 55 15 55 164 0 163 0 0 -29z m-1963 13 c-3 -3 -12 -4 -19 -1 -8 3 -5 6 6
6 11 1 17 -2 13 -5z m2147 -126 c3 -13 7 -70 10 -128 3 -59 16 -148 30 -202
l24 -98 -137 0 c-75 0 -212 9 -305 20 -147 17 -172 22 -194 42 -39 36 -62 96
-62 163 0 65 -14 93 -37 74 -22 -19 -16 -120 12 -195 26 -70 31 -104 16 -104
-26 0 -58 79 -70 175 -5 45 -9 50 -33 53 -59 7 -84 -58 -52 -138 9 -22 14 -46
11 -53 -3 -7 -40 -21 -83 -31 -44 -10 -145 -47 -225 -82 -147 -64 -235 -89
-273 -78 -39 12 -66 45 -66 82 0 70 127 151 270 172 47 6 86 19 104 32 l30 21
51 -27 c28 -16 62 -26 75 -24 21 2 25 8 25 38 0 32 -2 35 -28 32 -15 -2 -49 4
-77 13 -48 16 -49 16 -87 -9 -30 -20 -56 -26 -128 -32 l-90 -6 44 32 c99 73
240 114 371 108 72 -3 75 -2 73 19 -2 19 5 23 50 33 29 7 73 10 98 7 24 -3 70
-9 102 -13 31 -3 60 -10 63 -15 9 -15 43 -10 92 15 79 40 86 39 92 -19 l5 -50
48 -3 c49 -3 49 -3 43 25 -20 106 -19 111 13 127 41 22 41 22 41 -25 0 -55 19
-118 39 -129 28 -15 88 -22 95 -12 3 6 1 44 -6 84 -11 74 -6 128 12 128 5 0
12 -10 14 -22z m126 12 c11 -7 14 -33 15 -117 0 -70 7 -139 20 -196 19 -88 19
-89 0 -103 -27 -20 -39 -4 -63 86 -25 94 -35 226 -21 291 11 49 21 57 49 39z
m-200 -76 c0 -56 -3 -75 -12 -72 -8 3 -14 27 -16 63 -3 62 1 85 18 85 6 0 10
-30 10 -76z m-310 46 l45 -1 -45 -24 c-81 -43 -252 -28 -268 24 -4 12 14 13
109 8 63 -4 134 -7 159 -7z m-1922 -80 c-7 -22 -97 -119 -150 -163 -32 -26
-58 -54 -58 -62 0 -21 43 -19 100 6 l49 21 60 -53 c69 -62 146 -111 229 -145
118 -47 170 -57 334 -59 142 -3 160 -5 187 -24 17 -12 47 -28 68 -36 34 -12
-4 -14 -334 -14 -477 -1 -549 7 -848 101 -155 49 -191 76 -182 136 4 21 16 45
29 55 22 18 22 18 56 -22 46 -56 65 -65 107 -51 39 13 85 62 85 91 0 10 -17
37 -37 60 -36 40 -37 42 -18 56 38 28 156 84 208 98 61 16 120 19 115 5z
m2049 -22 c-3 -7 -5 -2 -5 12 0 14 2 19 5 13 2 -7 2 -19 0 -25z m-1001 -101
c-10 -7 -49 -35 -86 -64 -76 -59 -125 -125 -135 -184 -7 -39 -21 -51 -31 -25
-16 42 96 180 200 248 33 21 62 38 65 37 3 0 -2 -6 -13 -12z m-956 -57 c25
-22 73 -55 107 -73 35 -17 63 -35 63 -38 0 -3 -9 -14 -19 -23 -19 -17 -22 -17
-69 9 -99 54 -171 132 -145 158 11 11 16 9 63 -33z m3579 1 c19 -3 36 -11 38
-17 4 -11 -129 -89 -210 -123 -26 -11 -74 -27 -105 -36 -63 -16 -258 -45 -304
-45 -32 0 -37 19 -12 44 13 13 41 16 155 16 153 0 192 10 203 53 3 14 1 39 -5
56 -6 18 -8 35 -4 39 3 4 34 12 68 18 60 11 106 10 176 -5z m-3993 -22 c7 -13
-45 -71 -61 -66 -12 5 -7 47 7 65 13 15 44 16 54 1z m1899 -87 c-7 -7 -35 64
-35 85 1 10 10 -4 20 -31 11 -28 17 -52 15 -54z m326 -92 c57 -6 194 -27 304
-45 215 -38 240 -37 318 2 l48 24 26 -21 c29 -22 79 -26 118 -8 20 9 42 9 97
0 127 -22 138 -49 27 -72 -78 -17 -1392 -8 -1452 10 -48 14 -65 51 -41 87 17
27 9 27 255 7 46 -4 76 -1 100 9 42 19 70 20 200 7z m-469 -157 c-95 -2 -248
-2 -340 0 -92 1 -14 3 173 3 187 0 262 -2 167 -3z"/>
<path d="M5630 4642 c-17 -14 -22 -28 -22 -59 2 -109 108 -185 161 -117 27 34
26 44 -4 104 -37 74 -95 104 -135 72z"/>
<path d="M4198 4269 l-33 -31 35 7 c39 8 86 7 113 -1 23 -7 22 18 -1 39 -30
27 -77 21 -114 -14z"/>
<path d="M4534 4002 c-19 -12 -74 -94 -74 -110 0 -10 10 -6 37 14 45 34 96 53
146 54 46 0 47 11 2 33 -37 18 -92 22 -111 9z"/>
<path d="M4627 3914 c-32 -17 -29 -28 18 -50 48 -22 155 -123 196 -183 19 -28
42 -53 52 -57 21 -7 67 20 67 39 0 41 -128 181 -211 233 -63 38 -81 40 -122
18z"/>
<path d="M4855 3593 c-158 -32 -176 -34 -255 -25 -47 6 -89 12 -95 14 -5 1
-12 -1 -14 -7 -2 -5 25 -20 60 -32 114 -38 211 -53 354 -53 l136 0 13 31 c15
36 10 72 -13 92 -14 12 -38 10 -186 -20z"/>
<path d="M3283 3705 c-70 -21 -130 -62 -179 -123 -48 -59 -124 -202 -124 -234
0 -18 35 -38 65 -38 7 0 35 46 63 103 42 86 65 118 147 205 53 56 91 102 83
101 -7 0 -32 -6 -55 -14z"/>
<path d="M2766 3562 c-83 -34 -92 -40 -113 -82 -46 -90 -58 -163 -57 -335 1
-138 4 -169 23 -225 96 -278 330 -459 626 -485 90 -7 119 6 123 57 2 26 -2 40
-16 50 -15 10 -20 31 -25 108 -8 115 -27 193 -71 285 -69 146 -186 267 -324
336 -77 39 -88 49 -102 102 -13 45 -7 82 20 117 l19 25 17 -23 c24 -34 34 -15
26 48 -6 49 -10 55 -32 57 -14 2 -65 -14 -114 -35z m34 -246 c11 -42 15 -45
107 -91 118 -58 233 -165 280 -260 71 -142 81 -181 89 -334 l7 -144 -67 7
c-187 19 -358 122 -464 279 -90 136 -133 338 -100 477 12 51 17 57 63 82 28
15 55 28 61 28 6 0 17 -20 24 -44z"/>
<path d="M2833 3035 c-43 -26 -53 -51 -31 -73 9 -9 8 -12 -5 -12 -28 0 -59
-38 -51 -62 5 -17 51 -99 70 -126 5 -8 315 149 320 163 6 16 -32 103 -51 117
-5 5 -30 7 -55 6 -25 -1 -70 2 -100 6 -49 6 -60 4 -97 -19z"/>
<path d="M3600 3194 c-102 -22 -358 -114 -364 -131 -4 -9 -2 -21 4 -28 16 -20
153 -71 269 -101 94 -24 115 -26 220 -20 201 11 281 18 281 27 0 18 -103 130
-157 172 -77 58 -145 97 -169 96 -10 -1 -48 -7 -84 -15z m10 -99 c-80 -42
-220 -98 -228 -91 -2 3 4 8 14 12 10 4 66 28 124 54 116 52 130 58 145 59 6 0
-19 -15 -55 -34z m15 -39 c-44 -25 -93 -47 -110 -51 -16 -4 15 16 70 43 124
62 147 67 40 8z m-185 14 c-8 -5 -19 -10 -25 -10 -5 0 -3 5 5 10 8 5 20 10 25
10 6 0 3 -5 -5 -10z m320 -55 c-14 -8 -29 -14 -35 -14 -5 0 1 6 15 14 14 8 30
14 35 14 6 0 -1 -6 -15 -14z"/>
<path d="M3416 2735 c-11 -45 13 -77 69 -92 90 -23 264 -43 373 -43 104 0 270
14 280 24 2 3 1 29 -2 59 l-7 53 -104 -15 c-123 -19 -287 -12 -455 20 -138 25
-146 25 -154 -6z"/>
<path d="M3540 2495 c41 -42 35 -49 -43 -59 -31 -3 -87 -24 -144 -52 -86 -44
-94 -46 -123 -34 -46 19 -63 -3 -21 -25 55 -28 212 -85 234 -85 72 0 252 135
245 183 -4 27 -121 107 -156 107 l-26 0 34 -35z"/>
<path d="M5073 3359 c-42 -12 -42 -29 0 -29 17 0 62 -9 100 -19 37 -11 67 -17
67 -15 0 12 -24 50 -39 61 -19 14 -82 15 -128 2z"/>
<path d="M2117 2740 c-42 -36 -50 -71 -33 -136 28 -107 60 -137 160 -150 82
-12 136 40 136 131 0 74 -46 138 -122 169 -59 25 -102 21 -141 -14z"/>
<path d="M4333 2593 c-25 -27 -52 -58 -60 -70 -8 -13 -21 -23 -28 -23 -40 0
-60 -83 -27 -113 37 -34 83 -25 135 26 33 32 50 59 67 110 27 82 22 117 -17
117 -18 0 -39 -14 -70 -47z"/>
<path d="M501 4808 l-54 -103 82 -234 c45 -128 80 -235 78 -237 -2 -2 -75 34
-162 81 -88 47 -160 85 -161 85 -9 0 -82 -156 -76 -161 10 -10 755 -409 758
-406 1 1 21 36 43 78 l42 77 -43 24 c-24 14 -76 42 -116 64 l-73 39 -28 90
-28 90 61 6 c34 4 111 7 172 8 61 0 139 4 172 7 l62 7 51 94 c28 52 48 97 45
101 -4 3 -131 -4 -284 -17 -152 -12 -290 -23 -306 -24 -33 -2 -21 -28 -117
271 -28 89 -54 162 -58 162 -3 0 -30 -46 -60 -102z"/>
<path d="M7521 4745 c-142 -40 -268 -141 -328 -262 -35 -70 -37 -82 -37 -162
1 -101 27 -182 88 -274 47 -70 140 -156 210 -193 l52 -27 157 83 157 83 -39
71 c-21 39 -62 115 -90 168 l-52 97 -64 -31 c-36 -18 -65 -37 -65 -43 0 -5 20
-47 44 -91 l44 -82 -49 -23 c-58 -26 -74 -21 -143 46 -81 79 -108 193 -66 279
66 138 300 237 417 178 46 -24 99 -81 119 -128 23 -55 18 -135 -11 -178 -14
-21 -22 -43 -18 -49 5 -10 70 -92 95 -121 12 -15 68 43 94 99 47 100 40 192
-24 324 -47 98 -117 172 -198 212 -53 26 -78 32 -151 35 -59 3 -106 -1 -142
-11z"/>
<path d="M7390 4199 c0 -9 7 -22 15 -29 19 -16 19 0 0 26 -12 16 -14 16 -15 3z"/>
</g>
</svg>
